<?xml version="1.0" encoding="UTF-8"?>
      <mxfile host="codeviz.app" modified="2025-07-12T22:25:33.813Z" agent="CodeViz Exporter" version="14.6.5" type="device">
        <diagram id="codeviz-diagram" name="System Diagram">
          <mxGraphModel dx="1000" dy="1000" grid="1" gridSize="10" guides="1" tooltips="1" connect="1" arrows="1" fold="1" page="1" pageScale="1" pageWidth="1169" pageHeight="827" math="0" shadow="0">
            <root>
              <mxCell id="0"/>
              <mxCell id="1" parent="0"/>
              <mxCell id="section-diagram-8afd794908ae7909bb907bf784eccf68-High-Level-Architecture-wrapper" value="" style="html=1;whiteSpace=wrap;container=1;fillColor=#dae8fc;strokeColor=#6c8ebf;dashed=1;fillOpacity=20;strokeWidth=2;containerType=none;recursiveResize=0;movable=1;resizable=1;autosize=0;dropTarget=0" vertex="1" parent="search-results-group-8afd794908ae7909bb907bf784eccf68">
                <mxGeometry x="50" y="470" width="690" height="570" as="geometry"/>
              </mxCell>
              <mxCell id="section-diagram-8afd794908ae7909bb907bf784eccf68-High-Level-Architecture-wrapper_label" value="High-Level Architecture" style="edgeLabel;html=1;align=center;verticalAlign=middle;resizable=0;labelBackgroundColor=white;spacing=5" vertex="1" parent="search-results-group-8afd794908ae7909bb907bf784eccf68">
                <mxGeometry x="58" y="478" width="614" height="24" as="geometry"/>
              </mxCell>
<mxCell id="section-diagram-8afd794908ae7909bb907bf784eccf68-Core-Components-wrapper" value="" style="html=1;whiteSpace=wrap;container=1;fillColor=#dae8fc;strokeColor=#6c8ebf;dashed=1;fillOpacity=20;strokeWidth=2;containerType=none;recursiveResize=0;movable=1;resizable=1;autosize=0;dropTarget=0" vertex="1" parent="search-results-group-8afd794908ae7909bb907bf784eccf68">
                <mxGeometry x="730" y="440" width="840" height="700" as="geometry"/>
              </mxCell>
              <mxCell id="section-diagram-8afd794908ae7909bb907bf784eccf68-Core-Components-wrapper_label" value="Core Components" style="edgeLabel;html=1;align=center;verticalAlign=middle;resizable=0;labelBackgroundColor=white;spacing=5" vertex="1" parent="search-results-group-8afd794908ae7909bb907bf784eccf68">
                <mxGeometry x="738" y="448" width="764" height="24" as="geometry"/>
              </mxCell>
              <mxCell id="search-results-group-8afd794908ae7909bb907bf784eccf68" value="Search Results" style="rounded=1;whiteSpace=wrap;html=1;fillColor=#f5f5f5" vertex="1" parent="1">
                    <mxGeometry x="12" y="12" width="1560" height="1130" as="geometry"/>
                  </mxCell>
<mxCell id="terminal-8afd794908ae7909bb907bf784eccf68" value="Terminal" style="rounded=1;whiteSpace=wrap;html=1;fillColor=#f5f5f5" vertex="1" parent="1">
                    <mxGeometry x="732" y="1342" width="120" height="60" as="geometry"/>
                  </mxCell>
<mxCell id="search-result-8afd794908ae7909bb907bf784eccf68" value="" style="rounded=1;whiteSpace=wrap;html=1;fillColor=#f5f5f5" vertex="1" parent="search-results-group-8afd794908ae7909bb907bf784eccf68">
                    <mxGeometry x="191" y="80" width="120" height="60" as="geometry"/>
                  </mxCell>
<mxCell id="componentsDir_8afd794908ae7909bb907bf784eccf68_section_section-diagram-8afd794908ae7909bb907bf784eccf68-High-Level-Architecture" value="componentsDir" style="rounded=1;whiteSpace=wrap;html=1;fillColor=#f5f5f5" vertex="1" parent="section-diagram-8afd794908ae7909bb907bf784eccf68-High-Level-Architecture-wrapper">
                    <mxGeometry x="190" y="460" width="120" height="60" as="geometry"/>
                  </mxCell>
<mxCell id="configFiles_8afd794908ae7909bb907bf784eccf68_section_section-diagram-8afd794908ae7909bb907bf784eccf68-High-Level-Architecture" value="Configuration Files&lt;br&gt;Project Settings" style="rounded=1;whiteSpace=wrap;html=1;fillColor=#f5f5f5" vertex="1" parent="section-diagram-8afd794908ae7909bb907bf784eccf68-High-Level-Architecture-wrapper">
                    <mxGeometry x="96" y="150" width="120" height="60" as="geometry"/>
                  </mxCell>
<mxCell id="layoutsDir_8afd794908ae7909bb907bf784eccf68_section_section-diagram-8afd794908ae7909bb907bf784eccf68-High-Level-Architecture" value="layoutsDir" style="rounded=1;whiteSpace=wrap;html=1;fillColor=#f5f5f5" vertex="1" parent="section-diagram-8afd794908ae7909bb907bf784eccf68-High-Level-Architecture-wrapper">
                    <mxGeometry x="40" y="470" width="120" height="60" as="geometry"/>
                  </mxCell>
<mxCell id="nodeModules_8afd794908ae7909bb907bf784eccf68_section_section-diagram-8afd794908ae7909bb907bf784eccf68-High-Level-Architecture" value="Dependencies&lt;br&gt;npm" style="rounded=1;whiteSpace=wrap;html=1;fillColor=#f5f5f5" vertex="1" parent="section-diagram-8afd794908ae7909bb907bf784eccf68-High-Level-Architecture-wrapper">
                    <mxGeometry x="246" y="120" width="120" height="60" as="geometry"/>
                  </mxCell>
<mxCell id="pagesDir_8afd794908ae7909bb907bf784eccf68_section_section-diagram-8afd794908ae7909bb907bf784eccf68-High-Level-Architecture" value="pagesDir" style="rounded=1;whiteSpace=wrap;html=1;fillColor=#f5f5f5" vertex="1" parent="section-diagram-8afd794908ae7909bb907bf784eccf68-High-Level-Architecture-wrapper">
                    <mxGeometry x="340" y="450" width="120" height="60" as="geometry"/>
                  </mxCell>
<mxCell id="publicDir_8afd794908ae7909bb907bf784eccf68_section_section-diagram-8afd794908ae7909bb907bf784eccf68-High-Level-Architecture" value="Static Assets&lt;br&gt;Web Server" style="rounded=1;whiteSpace=wrap;html=1;fillColor=#f5f5f5" vertex="1" parent="section-diagram-8afd794908ae7909bb907bf784eccf68-High-Level-Architecture-wrapper">
                    <mxGeometry x="226" y="280" width="120" height="60" as="geometry"/>
                  </mxCell>
<mxCell id="srcDir_8afd794908ae7909bb907bf784eccf68_section_section-diagram-8afd794908ae7909bb907bf784eccf68-High-Level-Architecture" value="Source Code&lt;br&gt;Astro Application" style="rounded=1;whiteSpace=wrap;html=1;fillColor=#f5f5f5" vertex="1" parent="section-diagram-8afd794908ae7909bb907bf784eccf68-High-Level-Architecture-wrapper">
                    <mxGeometry x="76" y="310" width="120" height="60" as="geometry"/>
                  </mxCell>
<mxCell id="stylesDir_8afd794908ae7909bb907bf784eccf68_section_section-diagram-8afd794908ae7909bb907bf784eccf68-High-Level-Architecture" value="stylesDir" style="rounded=1;whiteSpace=wrap;html=1;fillColor=#f5f5f5" vertex="1" parent="section-diagram-8afd794908ae7909bb907bf784eccf68-High-Level-Architecture-wrapper">
                    <mxGeometry x="490" y="440" width="120" height="60" as="geometry"/>
                  </mxCell>
<mxCell id="aboutMePage_8afd794908ae7909bb907bf784eccf68_section_section-diagram-8afd794908ae7909bb907bf784eccf68-Core-Components" value="About Me Page&lt;br&gt;Astro Page" style="rounded=1;whiteSpace=wrap;html=1;fillColor=#f5f5f5" vertex="1" parent="section-diagram-8afd794908ae7909bb907bf784eccf68-Core-Components-wrapper">
                    <mxGeometry x="340" y="280" width="120" height="60" as="geometry"/>
                  </mxCell>
<mxCell id="baseLayout_8afd794908ae7909bb907bf784eccf68_section_section-diagram-8afd794908ae7909bb907bf784eccf68-Core-Components" value="Base Layout&lt;br&gt;Astro Layout" style="rounded=1;whiteSpace=wrap;html=1;fillColor=#f5f5f5" vertex="1" parent="section-diagram-8afd794908ae7909bb907bf784eccf68-Core-Components-wrapper">
                    <mxGeometry x="352" y="440" width="120" height="60" as="geometry"/>
                  </mxCell>
<mxCell id="componentsDir_8afd794908ae7909bb907bf784eccf68_section_section-diagram-8afd794908ae7909bb907bf784eccf68-Core-Components" value="Components&lt;br&gt;Reusable UI" style="rounded=1;whiteSpace=wrap;html=1;fillColor=#f5f5f5" vertex="1" parent="section-diagram-8afd794908ae7909bb907bf784eccf68-Core-Components-wrapper">
                    <mxGeometry x="516" y="440" width="120" height="60" as="geometry"/>
                  </mxCell>
<mxCell id="contactPage_8afd794908ae7909bb907bf784eccf68_section_section-diagram-8afd794908ae7909bb907bf784eccf68-Core-Components" value="Contact Page&lt;br&gt;Astro Page" style="rounded=1;whiteSpace=wrap;html=1;fillColor=#f5f5f5" vertex="1" parent="section-diagram-8afd794908ae7909bb907bf784eccf68-Core-Components-wrapper">
                    <mxGeometry x="640" y="310" width="120" height="60" as="geometry"/>
                  </mxCell>
<mxCell id="footerComp_8afd794908ae7909bb907bf784eccf68_section_section-diagram-8afd794908ae7909bb907bf784eccf68-Core-Components" value="Footer&lt;br&gt;Astro Component" style="rounded=1;whiteSpace=wrap;html=1;fillColor=#f5f5f5" vertex="1" parent="section-diagram-8afd794908ae7909bb907bf784eccf68-Core-Components-wrapper">
                    <mxGeometry x="502" y="600" width="120" height="60" as="geometry"/>
                  </mxCell>
<mxCell id="globalCss_8afd794908ae7909bb907bf784eccf68_section_section-diagram-8afd794908ae7909bb907bf784eccf68-Core-Components" value="Global Styles&lt;br&gt;CSS File" style="rounded=1;whiteSpace=wrap;html=1;fillColor=#f5f5f5" vertex="1" parent="section-diagram-8afd794908ae7909bb907bf784eccf68-Core-Components-wrapper">
                    <mxGeometry x="40" y="280" width="120" height="60" as="geometry"/>
                  </mxCell>
<mxCell id="headerComp_8afd794908ae7909bb907bf784eccf68_section_section-diagram-8afd794908ae7909bb907bf784eccf68-Core-Components" value="Header&lt;br&gt;Astro Component" style="rounded=1;whiteSpace=wrap;html=1;fillColor=#f5f5f5" vertex="1" parent="section-diagram-8afd794908ae7909bb907bf784eccf68-Core-Components-wrapper">
                    <mxGeometry x="352" y="600" width="120" height="60" as="geometry"/>
                  </mxCell>
<mxCell id="homePage_8afd794908ae7909bb907bf784eccf68_section_section-diagram-8afd794908ae7909bb907bf784eccf68-Core-Components" value="Home Page&lt;br&gt;Astro Page" style="rounded=1;whiteSpace=wrap;html=1;fillColor=#f5f5f5" vertex="1" parent="section-diagram-8afd794908ae7909bb907bf784eccf68-Core-Components-wrapper">
                    <mxGeometry x="490" y="280" width="120" height="60" as="geometry"/>
                  </mxCell>
<mxCell id="layoutsDir_8afd794908ae7909bb907bf784eccf68_section_section-diagram-8afd794908ae7909bb907bf784eccf68-Core-Components" value="Layouts&lt;br&gt;Reusable Structures" style="rounded=1;whiteSpace=wrap;html=1;fillColor=#f5f5f5" vertex="1" parent="section-diagram-8afd794908ae7909bb907bf784eccf68-Core-Components-wrapper">
                    <mxGeometry x="190" y="310" width="120" height="60" as="geometry"/>
                  </mxCell>
<mxCell id="pagesDir_8afd794908ae7909bb907bf784eccf68_section_section-diagram-8afd794908ae7909bb907bf784eccf68-Core-Components" value="Pages&lt;br&gt;Astro Routes" style="rounded=1;whiteSpace=wrap;html=1;fillColor=#f5f5f5" vertex="1" parent="section-diagram-8afd794908ae7909bb907bf784eccf68-Core-Components-wrapper">
                    <mxGeometry x="370" y="120" width="120" height="60" as="geometry"/>
                  </mxCell>
<mxCell id="stylesDir_8afd794908ae7909bb907bf784eccf68_section_section-diagram-8afd794908ae7909bb907bf784eccf68-Core-Components" value="Styles&lt;br&gt;Global CSS" style="rounded=1;whiteSpace=wrap;html=1;fillColor=#f5f5f5" vertex="1" parent="section-diagram-8afd794908ae7909bb907bf784eccf68-Core-Components-wrapper">
                    <mxGeometry x="40" y="120" width="120" height="60" as="geometry"/>
                  </mxCell>
<mxCell id="report-section-8afd794908ae7909bb907bf784eccf68-0" value="" style="rounded=1;whiteSpace=wrap;html=1;fillColor=#f5f5f5" vertex="1" parent="search-results-group-8afd794908ae7909bb907bf784eccf68">
                    <mxGeometry x="191" y="190" width="120" height="60" as="geometry"/>
                  </mxCell>
<mxCell id="report-section-8afd794908ae7909bb907bf784eccf68-1" value="" style="rounded=1;whiteSpace=wrap;html=1;fillColor=#f5f5f5" vertex="1" parent="search-results-group-8afd794908ae7909bb907bf784eccf68">
                    <mxGeometry x="305" y="300" width="120" height="60" as="geometry"/>
                  </mxCell>
<mxCell id="report-section-8afd794908ae7909bb907bf784eccf68-2" value="" style="rounded=1;whiteSpace=wrap;html=1;fillColor=#f5f5f5" vertex="1" parent="search-results-group-8afd794908ae7909bb907bf784eccf68">
                    <mxGeometry x="1060" y="270" width="120" height="60" as="geometry"/>
                  </mxCell>
<mxCell id="report-section-8afd794908ae7909bb907bf784eccf68-7" value="" style="rounded=1;whiteSpace=wrap;html=1;fillColor=#f5f5f5" vertex="1" parent="search-results-group-8afd794908ae7909bb907bf784eccf68">
                    <mxGeometry x="455" y="280" width="120" height="60" as="geometry"/>
                  </mxCell>
<mxCell id="report-section-8afd794908ae7909bb907bf784eccf68-12" value="" style="rounded=1;whiteSpace=wrap;html=1;fillColor=#f5f5f5" vertex="1" parent="search-results-group-8afd794908ae7909bb907bf784eccf68">
                    <mxGeometry x="155" y="300" width="120" height="60" as="geometry"/>
                  </mxCell>
              <mxCell id="edge-edge-search-to-terminal-8afd794908ae7909bb907bf784eccf68" style="edgeStyle=orthogonalEdgeStyle;rounded=1;orthogonalLoop=1;jettySize=auto;html=1;strokeColor=#808080;strokeWidth=2;jumpStyle=arc;jumpSize=10;spacing=15;labelBackgroundColor=white;labelBorderColor=none" edge="1" parent="1" source="search-results-group-8afd794908ae7909bb907bf784eccf68" target="terminal-8afd794908ae7909bb907bf784eccf68">
                  <mxGeometry relative="1" as="geometry"/>
                </mxCell>
                <mxCell id="edge-edge-search-to-terminal-8afd794908ae7909bb907bf784eccf68_label" value="Provides context to" style="edgeLabel;html=1;align=center;verticalAlign=middle;resizable=0;points=[];" vertex="1" connectable="0" parent="edge-edge-search-to-terminal-8afd794908ae7909bb907bf784eccf68">
                  <mxGeometry x="-0.2" y="10" relative="1" as="geometry">
                    <mxPoint as="offset"/>
                  </mxGeometry>
                </mxCell>
<mxCell id="edge-L_srcDir_pagesDir_0_8afd794908ae7909bb907bf784eccf68_section_section-diagram-8afd794908ae7909bb907bf784eccf68-High-Level-Architecture" style="edgeStyle=orthogonalEdgeStyle;rounded=1;orthogonalLoop=1;jettySize=auto;html=1;strokeColor=#808080;strokeWidth=2;jumpStyle=arc;jumpSize=10;spacing=15;labelBackgroundColor=white;labelBorderColor=none" edge="1" parent="1" source="srcDir_8afd794908ae7909bb907bf784eccf68_section_section-diagram-8afd794908ae7909bb907bf784eccf68-High-Level-Architecture" target="pagesDir_8afd794908ae7909bb907bf784eccf68_section_section-diagram-8afd794908ae7909bb907bf784eccf68-High-Level-Architecture">
                  <mxGeometry relative="1" as="geometry"/>
                </mxCell>
                <mxCell id="edge-L_srcDir_pagesDir_0_8afd794908ae7909bb907bf784eccf68_section_section-diagram-8afd794908ae7909bb907bf784eccf68-High-Level-Architecture_label" value="contains" style="edgeLabel;html=1;align=center;verticalAlign=middle;resizable=0;points=[];" vertex="1" connectable="0" parent="edge-L_srcDir_pagesDir_0_8afd794908ae7909bb907bf784eccf68_section_section-diagram-8afd794908ae7909bb907bf784eccf68-High-Level-Architecture">
                  <mxGeometry x="-0.2" y="10" relative="1" as="geometry">
                    <mxPoint as="offset"/>
                  </mxGeometry>
                </mxCell>
<mxCell id="edge-L_srcDir_layoutsDir_1_8afd794908ae7909bb907bf784eccf68_section_section-diagram-8afd794908ae7909bb907bf784eccf68-High-Level-Architecture" style="edgeStyle=orthogonalEdgeStyle;rounded=1;orthogonalLoop=1;jettySize=auto;html=1;strokeColor=#808080;strokeWidth=2;jumpStyle=arc;jumpSize=10;spacing=15;labelBackgroundColor=white;labelBorderColor=none" edge="1" parent="1" source="srcDir_8afd794908ae7909bb907bf784eccf68_section_section-diagram-8afd794908ae7909bb907bf784eccf68-High-Level-Architecture" target="layoutsDir_8afd794908ae7909bb907bf784eccf68_section_section-diagram-8afd794908ae7909bb907bf784eccf68-High-Level-Architecture">
                  <mxGeometry relative="1" as="geometry"/>
                </mxCell>
                <mxCell id="edge-L_srcDir_layoutsDir_1_8afd794908ae7909bb907bf784eccf68_section_section-diagram-8afd794908ae7909bb907bf784eccf68-High-Level-Architecture_label" value="contains" style="edgeLabel;html=1;align=center;verticalAlign=middle;resizable=0;points=[];" vertex="1" connectable="0" parent="edge-L_srcDir_layoutsDir_1_8afd794908ae7909bb907bf784eccf68_section_section-diagram-8afd794908ae7909bb907bf784eccf68-High-Level-Architecture">
                  <mxGeometry x="-0.2" y="10" relative="1" as="geometry">
                    <mxPoint as="offset"/>
                  </mxGeometry>
                </mxCell>
<mxCell id="edge-L_srcDir_componentsDir_2_8afd794908ae7909bb907bf784eccf68_section_section-diagram-8afd794908ae7909bb907bf784eccf68-High-Level-Architecture" style="edgeStyle=orthogonalEdgeStyle;rounded=1;orthogonalLoop=1;jettySize=auto;html=1;strokeColor=#808080;strokeWidth=2;jumpStyle=arc;jumpSize=10;spacing=15;labelBackgroundColor=white;labelBorderColor=none" edge="1" parent="1" source="srcDir_8afd794908ae7909bb907bf784eccf68_section_section-diagram-8afd794908ae7909bb907bf784eccf68-High-Level-Architecture" target="componentsDir_8afd794908ae7909bb907bf784eccf68_section_section-diagram-8afd794908ae7909bb907bf784eccf68-High-Level-Architecture">
                  <mxGeometry relative="1" as="geometry"/>
                </mxCell>
                <mxCell id="edge-L_srcDir_componentsDir_2_8afd794908ae7909bb907bf784eccf68_section_section-diagram-8afd794908ae7909bb907bf784eccf68-High-Level-Architecture_label" value="contains" style="edgeLabel;html=1;align=center;verticalAlign=middle;resizable=0;points=[];" vertex="1" connectable="0" parent="edge-L_srcDir_componentsDir_2_8afd794908ae7909bb907bf784eccf68_section_section-diagram-8afd794908ae7909bb907bf784eccf68-High-Level-Architecture">
                  <mxGeometry x="-0.2" y="10" relative="1" as="geometry">
                    <mxPoint as="offset"/>
                  </mxGeometry>
                </mxCell>
<mxCell id="edge-L_srcDir_stylesDir_3_8afd794908ae7909bb907bf784eccf68_section_section-diagram-8afd794908ae7909bb907bf784eccf68-High-Level-Architecture" style="edgeStyle=orthogonalEdgeStyle;rounded=1;orthogonalLoop=1;jettySize=auto;html=1;strokeColor=#808080;strokeWidth=2;jumpStyle=arc;jumpSize=10;spacing=15;labelBackgroundColor=white;labelBorderColor=none" edge="1" parent="1" source="srcDir_8afd794908ae7909bb907bf784eccf68_section_section-diagram-8afd794908ae7909bb907bf784eccf68-High-Level-Architecture" target="stylesDir_8afd794908ae7909bb907bf784eccf68_section_section-diagram-8afd794908ae7909bb907bf784eccf68-High-Level-Architecture">
                  <mxGeometry relative="1" as="geometry"/>
                </mxCell>
                <mxCell id="edge-L_srcDir_stylesDir_3_8afd794908ae7909bb907bf784eccf68_section_section-diagram-8afd794908ae7909bb907bf784eccf68-High-Level-Architecture_label" value="contains" style="edgeLabel;html=1;align=center;verticalAlign=middle;resizable=0;points=[];" vertex="1" connectable="0" parent="edge-L_srcDir_stylesDir_3_8afd794908ae7909bb907bf784eccf68_section_section-diagram-8afd794908ae7909bb907bf784eccf68-High-Level-Architecture">
                  <mxGeometry x="-0.2" y="10" relative="1" as="geometry">
                    <mxPoint as="offset"/>
                  </mxGeometry>
                </mxCell>
<mxCell id="edge-L_configFiles_srcDir_4_8afd794908ae7909bb907bf784eccf68_section_section-diagram-8afd794908ae7909bb907bf784eccf68-High-Level-Architecture" style="edgeStyle=orthogonalEdgeStyle;rounded=1;orthogonalLoop=1;jettySize=auto;html=1;strokeColor=#808080;strokeWidth=2;jumpStyle=arc;jumpSize=10;spacing=15;labelBackgroundColor=white;labelBorderColor=none" edge="1" parent="1" source="configFiles_8afd794908ae7909bb907bf784eccf68_section_section-diagram-8afd794908ae7909bb907bf784eccf68-High-Level-Architecture" target="srcDir_8afd794908ae7909bb907bf784eccf68_section_section-diagram-8afd794908ae7909bb907bf784eccf68-High-Level-Architecture">
                  <mxGeometry relative="1" as="geometry"/>
                </mxCell>
                <mxCell id="edge-L_configFiles_srcDir_4_8afd794908ae7909bb907bf784eccf68_section_section-diagram-8afd794908ae7909bb907bf784eccf68-High-Level-Architecture_label" value="manages" style="edgeLabel;html=1;align=center;verticalAlign=middle;resizable=0;points=[];" vertex="1" connectable="0" parent="edge-L_configFiles_srcDir_4_8afd794908ae7909bb907bf784eccf68_section_section-diagram-8afd794908ae7909bb907bf784eccf68-High-Level-Architecture">
                  <mxGeometry x="-0.2" y="10" relative="1" as="geometry">
                    <mxPoint as="offset"/>
                  </mxGeometry>
                </mxCell>
<mxCell id="edge-L_configFiles_publicDir_5_8afd794908ae7909bb907bf784eccf68_section_section-diagram-8afd794908ae7909bb907bf784eccf68-High-Level-Architecture" style="edgeStyle=orthogonalEdgeStyle;rounded=1;orthogonalLoop=1;jettySize=auto;html=1;strokeColor=#808080;strokeWidth=2;jumpStyle=arc;jumpSize=10;spacing=15;labelBackgroundColor=white;labelBorderColor=none" edge="1" parent="1" source="configFiles_8afd794908ae7909bb907bf784eccf68_section_section-diagram-8afd794908ae7909bb907bf784eccf68-High-Level-Architecture" target="publicDir_8afd794908ae7909bb907bf784eccf68_section_section-diagram-8afd794908ae7909bb907bf784eccf68-High-Level-Architecture">
                  <mxGeometry relative="1" as="geometry"/>
                </mxCell>
                <mxCell id="edge-L_configFiles_publicDir_5_8afd794908ae7909bb907bf784eccf68_section_section-diagram-8afd794908ae7909bb907bf784eccf68-High-Level-Architecture_label" value="manages" style="edgeLabel;html=1;align=center;verticalAlign=middle;resizable=0;points=[];" vertex="1" connectable="0" parent="edge-L_configFiles_publicDir_5_8afd794908ae7909bb907bf784eccf68_section_section-diagram-8afd794908ae7909bb907bf784eccf68-High-Level-Architecture">
                  <mxGeometry x="-0.2" y="10" relative="1" as="geometry">
                    <mxPoint as="offset"/>
                  </mxGeometry>
                </mxCell>
<mxCell id="edge-report-section-8afd794908ae7909bb907bf784eccf68-1-to-section-diagram-8afd794908ae7909bb907bf784eccf68-High-Level-Architecture-wrapper" style="edgeStyle=orthogonalEdgeStyle;rounded=1;orthogonalLoop=1;jettySize=auto;html=1;strokeColor=#808080;strokeWidth=2;jumpStyle=arc;jumpSize=10;spacing=15;labelBackgroundColor=white;labelBorderColor=none" edge="1" parent="1" source="report-section-8afd794908ae7909bb907bf784eccf68-1" target="section-diagram-8afd794908ae7909bb907bf784eccf68-High-Level-Architecture-wrapper">
                  <mxGeometry relative="1" as="geometry"/>
                </mxCell>
                <mxCell id="edge-report-section-8afd794908ae7909bb907bf784eccf68-1-to-section-diagram-8afd794908ae7909bb907bf784eccf68-High-Level-Architecture-wrapper_label" value="Diagram" style="edgeLabel;html=1;align=center;verticalAlign=middle;resizable=0;points=[];" vertex="1" connectable="0" parent="edge-report-section-8afd794908ae7909bb907bf784eccf68-1-to-section-diagram-8afd794908ae7909bb907bf784eccf68-High-Level-Architecture-wrapper">
                  <mxGeometry x="-0.2" y="10" relative="1" as="geometry">
                    <mxPoint as="offset"/>
                  </mxGeometry>
                </mxCell>
<mxCell id="edge-L_pagesDir_homePage_0_8afd794908ae7909bb907bf784eccf68_section_section-diagram-8afd794908ae7909bb907bf784eccf68-Core-Components" style="edgeStyle=orthogonalEdgeStyle;rounded=1;orthogonalLoop=1;jettySize=auto;html=1;strokeColor=#808080;strokeWidth=2;jumpStyle=arc;jumpSize=10;spacing=15;labelBackgroundColor=white;labelBorderColor=none" edge="1" parent="1" source="pagesDir_8afd794908ae7909bb907bf784eccf68_section_section-diagram-8afd794908ae7909bb907bf784eccf68-Core-Components" target="homePage_8afd794908ae7909bb907bf784eccf68_section_section-diagram-8afd794908ae7909bb907bf784eccf68-Core-Components">
                  <mxGeometry relative="1" as="geometry"/>
                </mxCell>
                <mxCell id="edge-L_pagesDir_homePage_0_8afd794908ae7909bb907bf784eccf68_section_section-diagram-8afd794908ae7909bb907bf784eccf68-Core-Components_label" value="contains" style="edgeLabel;html=1;align=center;verticalAlign=middle;resizable=0;points=[];" vertex="1" connectable="0" parent="edge-L_pagesDir_homePage_0_8afd794908ae7909bb907bf784eccf68_section_section-diagram-8afd794908ae7909bb907bf784eccf68-Core-Components">
                  <mxGeometry x="-0.2" y="10" relative="1" as="geometry">
                    <mxPoint as="offset"/>
                  </mxGeometry>
                </mxCell>
<mxCell id="edge-L_pagesDir_contactPage_1_8afd794908ae7909bb907bf784eccf68_section_section-diagram-8afd794908ae7909bb907bf784eccf68-Core-Components" style="edgeStyle=orthogonalEdgeStyle;rounded=1;orthogonalLoop=1;jettySize=auto;html=1;strokeColor=#808080;strokeWidth=2;jumpStyle=arc;jumpSize=10;spacing=15;labelBackgroundColor=white;labelBorderColor=none" edge="1" parent="1" source="pagesDir_8afd794908ae7909bb907bf784eccf68_section_section-diagram-8afd794908ae7909bb907bf784eccf68-Core-Components" target="contactPage_8afd794908ae7909bb907bf784eccf68_section_section-diagram-8afd794908ae7909bb907bf784eccf68-Core-Components">
                  <mxGeometry relative="1" as="geometry"/>
                </mxCell>
                <mxCell id="edge-L_pagesDir_contactPage_1_8afd794908ae7909bb907bf784eccf68_section_section-diagram-8afd794908ae7909bb907bf784eccf68-Core-Components_label" value="contains" style="edgeLabel;html=1;align=center;verticalAlign=middle;resizable=0;points=[];" vertex="1" connectable="0" parent="edge-L_pagesDir_contactPage_1_8afd794908ae7909bb907bf784eccf68_section_section-diagram-8afd794908ae7909bb907bf784eccf68-Core-Components">
                  <mxGeometry x="-0.2" y="10" relative="1" as="geometry">
                    <mxPoint as="offset"/>
                  </mxGeometry>
                </mxCell>
<mxCell id="edge-L_pagesDir_aboutMePage_2_8afd794908ae7909bb907bf784eccf68_section_section-diagram-8afd794908ae7909bb907bf784eccf68-Core-Components" style="edgeStyle=orthogonalEdgeStyle;rounded=1;orthogonalLoop=1;jettySize=auto;html=1;strokeColor=#808080;strokeWidth=2;jumpStyle=arc;jumpSize=10;spacing=15;labelBackgroundColor=white;labelBorderColor=none" edge="1" parent="1" source="pagesDir_8afd794908ae7909bb907bf784eccf68_section_section-diagram-8afd794908ae7909bb907bf784eccf68-Core-Components" target="aboutMePage_8afd794908ae7909bb907bf784eccf68_section_section-diagram-8afd794908ae7909bb907bf784eccf68-Core-Components">
                  <mxGeometry relative="1" as="geometry"/>
                </mxCell>
                <mxCell id="edge-L_pagesDir_aboutMePage_2_8afd794908ae7909bb907bf784eccf68_section_section-diagram-8afd794908ae7909bb907bf784eccf68-Core-Components_label" value="contains" style="edgeLabel;html=1;align=center;verticalAlign=middle;resizable=0;points=[];" vertex="1" connectable="0" parent="edge-L_pagesDir_aboutMePage_2_8afd794908ae7909bb907bf784eccf68_section_section-diagram-8afd794908ae7909bb907bf784eccf68-Core-Components">
                  <mxGeometry x="-0.2" y="10" relative="1" as="geometry">
                    <mxPoint as="offset"/>
                  </mxGeometry>
                </mxCell>
<mxCell id="edge-L_layoutsDir_baseLayout_3_8afd794908ae7909bb907bf784eccf68_section_section-diagram-8afd794908ae7909bb907bf784eccf68-Core-Components" style="edgeStyle=orthogonalEdgeStyle;rounded=1;orthogonalLoop=1;jettySize=auto;html=1;strokeColor=#808080;strokeWidth=2;jumpStyle=arc;jumpSize=10;spacing=15;labelBackgroundColor=white;labelBorderColor=none" edge="1" parent="1" source="layoutsDir_8afd794908ae7909bb907bf784eccf68_section_section-diagram-8afd794908ae7909bb907bf784eccf68-Core-Components" target="baseLayout_8afd794908ae7909bb907bf784eccf68_section_section-diagram-8afd794908ae7909bb907bf784eccf68-Core-Components">
                  <mxGeometry relative="1" as="geometry"/>
                </mxCell>
                <mxCell id="edge-L_layoutsDir_baseLayout_3_8afd794908ae7909bb907bf784eccf68_section_section-diagram-8afd794908ae7909bb907bf784eccf68-Core-Components_label" value="contains" style="edgeLabel;html=1;align=center;verticalAlign=middle;resizable=0;points=[];" vertex="1" connectable="0" parent="edge-L_layoutsDir_baseLayout_3_8afd794908ae7909bb907bf784eccf68_section_section-diagram-8afd794908ae7909bb907bf784eccf68-Core-Components">
                  <mxGeometry x="-0.2" y="10" relative="1" as="geometry">
                    <mxPoint as="offset"/>
                  </mxGeometry>
                </mxCell>
<mxCell id="edge-L_componentsDir_footerComp_4_8afd794908ae7909bb907bf784eccf68_section_section-diagram-8afd794908ae7909bb907bf784eccf68-Core-Components" style="edgeStyle=orthogonalEdgeStyle;rounded=1;orthogonalLoop=1;jettySize=auto;html=1;strokeColor=#808080;strokeWidth=2;jumpStyle=arc;jumpSize=10;spacing=15;labelBackgroundColor=white;labelBorderColor=none" edge="1" parent="1" source="componentsDir_8afd794908ae7909bb907bf784eccf68_section_section-diagram-8afd794908ae7909bb907bf784eccf68-Core-Components" target="footerComp_8afd794908ae7909bb907bf784eccf68_section_section-diagram-8afd794908ae7909bb907bf784eccf68-Core-Components">
                  <mxGeometry relative="1" as="geometry"/>
                </mxCell>
                <mxCell id="edge-L_componentsDir_footerComp_4_8afd794908ae7909bb907bf784eccf68_section_section-diagram-8afd794908ae7909bb907bf784eccf68-Core-Components_label" value="contains" style="edgeLabel;html=1;align=center;verticalAlign=middle;resizable=0;points=[];" vertex="1" connectable="0" parent="edge-L_componentsDir_footerComp_4_8afd794908ae7909bb907bf784eccf68_section_section-diagram-8afd794908ae7909bb907bf784eccf68-Core-Components">
                  <mxGeometry x="-0.2" y="10" relative="1" as="geometry">
                    <mxPoint as="offset"/>
                  </mxGeometry>
                </mxCell>
<mxCell id="edge-L_componentsDir_headerComp_5_8afd794908ae7909bb907bf784eccf68_section_section-diagram-8afd794908ae7909bb907bf784eccf68-Core-Components" style="edgeStyle=orthogonalEdgeStyle;rounded=1;orthogonalLoop=1;jettySize=auto;html=1;strokeColor=#808080;strokeWidth=2;jumpStyle=arc;jumpSize=10;spacing=15;labelBackgroundColor=white;labelBorderColor=none" edge="1" parent="1" source="componentsDir_8afd794908ae7909bb907bf784eccf68_section_section-diagram-8afd794908ae7909bb907bf784eccf68-Core-Components" target="headerComp_8afd794908ae7909bb907bf784eccf68_section_section-diagram-8afd794908ae7909bb907bf784eccf68-Core-Components">
                  <mxGeometry relative="1" as="geometry"/>
                </mxCell>
                <mxCell id="edge-L_componentsDir_headerComp_5_8afd794908ae7909bb907bf784eccf68_section_section-diagram-8afd794908ae7909bb907bf784eccf68-Core-Components_label" value="contains" style="edgeLabel;html=1;align=center;verticalAlign=middle;resizable=0;points=[];" vertex="1" connectable="0" parent="edge-L_componentsDir_headerComp_5_8afd794908ae7909bb907bf784eccf68_section_section-diagram-8afd794908ae7909bb907bf784eccf68-Core-Components">
                  <mxGeometry x="-0.2" y="10" relative="1" as="geometry">
                    <mxPoint as="offset"/>
                  </mxGeometry>
                </mxCell>
<mxCell id="edge-L_stylesDir_globalCss_6_8afd794908ae7909bb907bf784eccf68_section_section-diagram-8afd794908ae7909bb907bf784eccf68-Core-Components" style="edgeStyle=orthogonalEdgeStyle;rounded=1;orthogonalLoop=1;jettySize=auto;html=1;strokeColor=#808080;strokeWidth=2;jumpStyle=arc;jumpSize=10;spacing=15;labelBackgroundColor=white;labelBorderColor=none" edge="1" parent="1" source="stylesDir_8afd794908ae7909bb907bf784eccf68_section_section-diagram-8afd794908ae7909bb907bf784eccf68-Core-Components" target="globalCss_8afd794908ae7909bb907bf784eccf68_section_section-diagram-8afd794908ae7909bb907bf784eccf68-Core-Components">
                  <mxGeometry relative="1" as="geometry"/>
                </mxCell>
                <mxCell id="edge-L_stylesDir_globalCss_6_8afd794908ae7909bb907bf784eccf68_section_section-diagram-8afd794908ae7909bb907bf784eccf68-Core-Components_label" value="contains" style="edgeLabel;html=1;align=center;verticalAlign=middle;resizable=0;points=[];" vertex="1" connectable="0" parent="edge-L_stylesDir_globalCss_6_8afd794908ae7909bb907bf784eccf68_section_section-diagram-8afd794908ae7909bb907bf784eccf68-Core-Components">
                  <mxGeometry x="-0.2" y="10" relative="1" as="geometry">
                    <mxPoint as="offset"/>
                  </mxGeometry>
                </mxCell>
<mxCell id="edge-L_baseLayout_headerComp_7_8afd794908ae7909bb907bf784eccf68_section_section-diagram-8afd794908ae7909bb907bf784eccf68-Core-Components" style="edgeStyle=orthogonalEdgeStyle;rounded=1;orthogonalLoop=1;jettySize=auto;html=1;strokeColor=#808080;strokeWidth=2;jumpStyle=arc;jumpSize=10;spacing=15;labelBackgroundColor=white;labelBorderColor=none" edge="1" parent="1" source="baseLayout_8afd794908ae7909bb907bf784eccf68_section_section-diagram-8afd794908ae7909bb907bf784eccf68-Core-Components" target="headerComp_8afd794908ae7909bb907bf784eccf68_section_section-diagram-8afd794908ae7909bb907bf784eccf68-Core-Components">
                  <mxGeometry relative="1" as="geometry"/>
                </mxCell>
                <mxCell id="edge-L_baseLayout_headerComp_7_8afd794908ae7909bb907bf784eccf68_section_section-diagram-8afd794908ae7909bb907bf784eccf68-Core-Components_label" value="uses" style="edgeLabel;html=1;align=center;verticalAlign=middle;resizable=0;points=[];" vertex="1" connectable="0" parent="edge-L_baseLayout_headerComp_7_8afd794908ae7909bb907bf784eccf68_section_section-diagram-8afd794908ae7909bb907bf784eccf68-Core-Components">
                  <mxGeometry x="-0.2" y="10" relative="1" as="geometry">
                    <mxPoint as="offset"/>
                  </mxGeometry>
                </mxCell>
<mxCell id="edge-L_baseLayout_footerComp_8_8afd794908ae7909bb907bf784eccf68_section_section-diagram-8afd794908ae7909bb907bf784eccf68-Core-Components" style="edgeStyle=orthogonalEdgeStyle;rounded=1;orthogonalLoop=1;jettySize=auto;html=1;strokeColor=#808080;strokeWidth=2;jumpStyle=arc;jumpSize=10;spacing=15;labelBackgroundColor=white;labelBorderColor=none" edge="1" parent="1" source="baseLayout_8afd794908ae7909bb907bf784eccf68_section_section-diagram-8afd794908ae7909bb907bf784eccf68-Core-Components" target="footerComp_8afd794908ae7909bb907bf784eccf68_section_section-diagram-8afd794908ae7909bb907bf784eccf68-Core-Components">
                  <mxGeometry relative="1" as="geometry"/>
                </mxCell>
                <mxCell id="edge-L_baseLayout_footerComp_8_8afd794908ae7909bb907bf784eccf68_section_section-diagram-8afd794908ae7909bb907bf784eccf68-Core-Components_label" value="uses" style="edgeLabel;html=1;align=center;verticalAlign=middle;resizable=0;points=[];" vertex="1" connectable="0" parent="edge-L_baseLayout_footerComp_8_8afd794908ae7909bb907bf784eccf68_section_section-diagram-8afd794908ae7909bb907bf784eccf68-Core-Components">
                  <mxGeometry x="-0.2" y="10" relative="1" as="geometry">
                    <mxPoint as="offset"/>
                  </mxGeometry>
                </mxCell>
<mxCell id="edge-L_homePage_baseLayout_9_8afd794908ae7909bb907bf784eccf68_section_section-diagram-8afd794908ae7909bb907bf784eccf68-Core-Components" style="edgeStyle=orthogonalEdgeStyle;rounded=1;orthogonalLoop=1;jettySize=auto;html=1;strokeColor=#808080;strokeWidth=2;jumpStyle=arc;jumpSize=10;spacing=15;labelBackgroundColor=white;labelBorderColor=none" edge="1" parent="1" source="homePage_8afd794908ae7909bb907bf784eccf68_section_section-diagram-8afd794908ae7909bb907bf784eccf68-Core-Components" target="baseLayout_8afd794908ae7909bb907bf784eccf68_section_section-diagram-8afd794908ae7909bb907bf784eccf68-Core-Components">
                  <mxGeometry relative="1" as="geometry"/>
                </mxCell>
                <mxCell id="edge-L_homePage_baseLayout_9_8afd794908ae7909bb907bf784eccf68_section_section-diagram-8afd794908ae7909bb907bf784eccf68-Core-Components_label" value="uses" style="edgeLabel;html=1;align=center;verticalAlign=middle;resizable=0;points=[];" vertex="1" connectable="0" parent="edge-L_homePage_baseLayout_9_8afd794908ae7909bb907bf784eccf68_section_section-diagram-8afd794908ae7909bb907bf784eccf68-Core-Components">
                  <mxGeometry x="-0.2" y="10" relative="1" as="geometry">
                    <mxPoint as="offset"/>
                  </mxGeometry>
                </mxCell>
<mxCell id="edge-L_contactPage_baseLayout_10_8afd794908ae7909bb907bf784eccf68_section_section-diagram-8afd794908ae7909bb907bf784eccf68-Core-Components" style="edgeStyle=orthogonalEdgeStyle;rounded=1;orthogonalLoop=1;jettySize=auto;html=1;strokeColor=#808080;strokeWidth=2;jumpStyle=arc;jumpSize=10;spacing=15;labelBackgroundColor=white;labelBorderColor=none" edge="1" parent="1" source="contactPage_8afd794908ae7909bb907bf784eccf68_section_section-diagram-8afd794908ae7909bb907bf784eccf68-Core-Components" target="baseLayout_8afd794908ae7909bb907bf784eccf68_section_section-diagram-8afd794908ae7909bb907bf784eccf68-Core-Components">
                  <mxGeometry relative="1" as="geometry"/>
                </mxCell>
                <mxCell id="edge-L_contactPage_baseLayout_10_8afd794908ae7909bb907bf784eccf68_section_section-diagram-8afd794908ae7909bb907bf784eccf68-Core-Components_label" value="uses" style="edgeLabel;html=1;align=center;verticalAlign=middle;resizable=0;points=[];" vertex="1" connectable="0" parent="edge-L_contactPage_baseLayout_10_8afd794908ae7909bb907bf784eccf68_section_section-diagram-8afd794908ae7909bb907bf784eccf68-Core-Components">
                  <mxGeometry x="-0.2" y="10" relative="1" as="geometry">
                    <mxPoint as="offset"/>
                  </mxGeometry>
                </mxCell>
<mxCell id="edge-L_aboutMePage_baseLayout_11_8afd794908ae7909bb907bf784eccf68_section_section-diagram-8afd794908ae7909bb907bf784eccf68-Core-Components" style="edgeStyle=orthogonalEdgeStyle;rounded=1;orthogonalLoop=1;jettySize=auto;html=1;strokeColor=#808080;strokeWidth=2;jumpStyle=arc;jumpSize=10;spacing=15;labelBackgroundColor=white;labelBorderColor=none" edge="1" parent="1" source="aboutMePage_8afd794908ae7909bb907bf784eccf68_section_section-diagram-8afd794908ae7909bb907bf784eccf68-Core-Components" target="baseLayout_8afd794908ae7909bb907bf784eccf68_section_section-diagram-8afd794908ae7909bb907bf784eccf68-Core-Components">
                  <mxGeometry relative="1" as="geometry"/>
                </mxCell>
                <mxCell id="edge-L_aboutMePage_baseLayout_11_8afd794908ae7909bb907bf784eccf68_section_section-diagram-8afd794908ae7909bb907bf784eccf68-Core-Components_label" value="uses" style="edgeLabel;html=1;align=center;verticalAlign=middle;resizable=0;points=[];" vertex="1" connectable="0" parent="edge-L_aboutMePage_baseLayout_11_8afd794908ae7909bb907bf784eccf68_section_section-diagram-8afd794908ae7909bb907bf784eccf68-Core-Components">
                  <mxGeometry x="-0.2" y="10" relative="1" as="geometry">
                    <mxPoint as="offset"/>
                  </mxGeometry>
                </mxCell>
<mxCell id="edge-report-section-8afd794908ae7909bb907bf784eccf68-2-to-section-diagram-8afd794908ae7909bb907bf784eccf68-Core-Components-wrapper" style="edgeStyle=orthogonalEdgeStyle;rounded=1;orthogonalLoop=1;jettySize=auto;html=1;strokeColor=#808080;strokeWidth=2;jumpStyle=arc;jumpSize=10;spacing=15;labelBackgroundColor=white;labelBorderColor=none" edge="1" parent="1" source="report-section-8afd794908ae7909bb907bf784eccf68-2" target="section-diagram-8afd794908ae7909bb907bf784eccf68-Core-Components-wrapper">
                  <mxGeometry relative="1" as="geometry"/>
                </mxCell>
                <mxCell id="edge-report-section-8afd794908ae7909bb907bf784eccf68-2-to-section-diagram-8afd794908ae7909bb907bf784eccf68-Core-Components-wrapper_label" value="Diagram" style="edgeLabel;html=1;align=center;verticalAlign=middle;resizable=0;points=[];" vertex="1" connectable="0" parent="edge-report-section-8afd794908ae7909bb907bf784eccf68-2-to-section-diagram-8afd794908ae7909bb907bf784eccf68-Core-Components-wrapper">
                  <mxGeometry x="-0.2" y="10" relative="1" as="geometry">
                    <mxPoint as="offset"/>
                  </mxGeometry>
                </mxCell>
<mxCell id="edge-search-result-8afd794908ae7909bb907bf784eccf68-to-report-section-8afd794908ae7909bb907bf784eccf68-0" style="edgeStyle=orthogonalEdgeStyle;rounded=1;orthogonalLoop=1;jettySize=auto;html=1;strokeColor=#808080;strokeWidth=2;jumpStyle=arc;jumpSize=10;spacing=15;labelBackgroundColor=white;labelBorderColor=none" edge="1" parent="1" source="search-result-8afd794908ae7909bb907bf784eccf68" target="report-section-8afd794908ae7909bb907bf784eccf68-0">
                  <mxGeometry relative="1" as="geometry"/>
                </mxCell>
<mxCell id="edge-report-section-8afd794908ae7909bb907bf784eccf68-0-to-report-section-8afd794908ae7909bb907bf784eccf68-1" style="edgeStyle=orthogonalEdgeStyle;rounded=1;orthogonalLoop=1;jettySize=auto;html=1;strokeColor=#808080;strokeWidth=2;jumpStyle=arc;jumpSize=10;spacing=15;labelBackgroundColor=white;labelBorderColor=none" edge="1" parent="1" source="report-section-8afd794908ae7909bb907bf784eccf68-0" target="report-section-8afd794908ae7909bb907bf784eccf68-1">
                  <mxGeometry relative="1" as="geometry"/>
                </mxCell>
<mxCell id="edge-report-section-8afd794908ae7909bb907bf784eccf68-0-to-report-section-8afd794908ae7909bb907bf784eccf68-2" style="edgeStyle=orthogonalEdgeStyle;rounded=1;orthogonalLoop=1;jettySize=auto;html=1;strokeColor=#808080;strokeWidth=2;jumpStyle=arc;jumpSize=10;spacing=15;labelBackgroundColor=white;labelBorderColor=none" edge="1" parent="1" source="report-section-8afd794908ae7909bb907bf784eccf68-0" target="report-section-8afd794908ae7909bb907bf784eccf68-2">
                  <mxGeometry relative="1" as="geometry"/>
                </mxCell>
<mxCell id="edge-report-section-8afd794908ae7909bb907bf784eccf68-0-to-report-section-8afd794908ae7909bb907bf784eccf68-7" style="edgeStyle=orthogonalEdgeStyle;rounded=1;orthogonalLoop=1;jettySize=auto;html=1;strokeColor=#808080;strokeWidth=2;jumpStyle=arc;jumpSize=10;spacing=15;labelBackgroundColor=white;labelBorderColor=none" edge="1" parent="1" source="report-section-8afd794908ae7909bb907bf784eccf68-0" target="report-section-8afd794908ae7909bb907bf784eccf68-7">
                  <mxGeometry relative="1" as="geometry"/>
                </mxCell>
<mxCell id="edge-report-section-8afd794908ae7909bb907bf784eccf68-0-to-report-section-8afd794908ae7909bb907bf784eccf68-12" style="edgeStyle=orthogonalEdgeStyle;rounded=1;orthogonalLoop=1;jettySize=auto;html=1;strokeColor=#808080;strokeWidth=2;jumpStyle=arc;jumpSize=10;spacing=15;labelBackgroundColor=white;labelBorderColor=none" edge="1" parent="1" source="report-section-8afd794908ae7909bb907bf784eccf68-0" target="report-section-8afd794908ae7909bb907bf784eccf68-12">
                  <mxGeometry relative="1" as="geometry"/>
                </mxCell>
            </root>
          </mxGraphModel>
        </diagram>
      </mxfile>